<svg width="325" height="157" viewBox="0 0 325 157" fill="none" xmlns="http://www.w3.org/2000/svg">
<path d="M130.831 51.4071C130.831 51.4071 136.368 65.3009 159.904 71.2057C183.786 77.1106 179.286 97.2566 179.286 97.2566L175.825 109.414H174.787V92.7411H177.902V89.615C177.902 89.615 161.635 75.0265 161.635 75.3739L143.983 90.6571L145.021 93.0885H147.79V96.5619C147.79 96.5619 146.752 97.2566 141.56 90.6571C136.368 84.0575 134.638 81.9734 134.638 81.9734C134.638 81.9734 134.292 88.9203 140.176 95.1725C146.06 101.425 157.827 112.54 171.326 113.929C184.478 115.319 184.478 115.319 184.478 115.319C184.478 115.319 198.323 115.666 213.206 110.803C228.088 105.94 222.897 108.024 222.897 108.024C222.897 108.024 196.246 118.097 185.516 117.403C174.787 117.055 169.595 115.666 169.595 115.666C169.595 115.666 142.252 122.613 130.138 106.288C118.024 89.9624 130.138 51.4071 130.138 51.4071L130.485 50.7124L130.831 51.4071Z" fill="#C61010"/>
<path d="M161.289 89.615C162.627 89.615 163.711 88.5264 163.711 87.1836C163.711 85.8408 162.627 84.7522 161.289 84.7522C159.951 84.7522 158.866 85.8408 158.866 87.1836C158.866 88.5264 159.951 89.615 161.289 89.615Z" fill="#C61010"/>
<path d="M158.174 97.2566V104.551L164.75 108.372V97.2566H158.174Z" fill="#C61010"/>
<path d="M134.984 81.9735C134.984 81.9735 145.367 108.024 166.134 112.54C186.901 117.055 181.709 117.055 181.709 117.055L169.249 114.624C169.249 114.624 151.597 112.192 151.251 111.845C150.905 111.498 133.946 101.425 133.946 101.425C133.946 101.425 129.792 89.9624 129.792 88.573C129.792 87.1836 130.138 80.9314 130.485 80.9314C131.177 81.2788 134.984 81.9735 134.984 81.9735Z" fill="#C61010"/>
<path d="M223.243 107.33C223.243 107.33 195.9 114.971 187.247 114.971C178.594 114.971 181.363 116.708 181.363 116.708H183.094L187.593 116.361C187.593 116.361 191.4 117.055 206.975 112.192C222.897 107.677 223.243 107.33 223.243 107.33Z" fill="#C61010"/>
<path d="M184.824 75.3739C199.015 99.3407 179.979 108.719 179.979 108.719C179.979 108.719 178.94 109.066 179.286 108.719C179.633 108.372 189.324 86.8363 178.594 78.1527C167.865 69.469 155.751 65.6482 155.751 65.6482C155.751 65.6482 158.174 49.6704 175.133 44.1128C184.478 41.3341 186.555 40.9867 186.209 41.3341C186.209 42.0288 170.634 51.4071 184.824 75.3739Z" fill="#C61010"/>
<path d="M21.8051 92.0464C23.8818 88.573 24.574 87.1836 26.6507 83.7101C28.3813 81.2787 29.7657 79.542 30.804 78.1526C31.8424 77.1106 33.2268 76.4159 34.6113 76.4159C35.9957 76.0685 37.3802 76.7632 39.1108 78.1526C40.1491 78.8473 40.8413 79.8893 40.8413 80.584C40.8413 81.2787 40.4952 82.6681 39.803 84.4048C41.1874 83.0154 42.5719 82.3207 43.6102 81.9734C44.6486 81.9734 45.6869 82.3207 47.0714 83.3628C47.7636 84.0575 48.1097 84.0575 48.8019 84.7522C50.1864 85.7942 50.8786 86.4889 51.2247 87.5309C51.5708 88.2256 51.5708 89.2677 51.2247 90.3097C50.8786 91.3517 49.8403 93.0885 47.7636 95.8672C45.6869 98.9933 44.6486 100.73 42.918 103.856C34.2652 98.9933 30.1118 96.5619 21.8051 92.0464ZM30.1118 85.7942C31.8424 86.8362 32.8807 87.5309 34.6113 88.573C34.9574 88.2256 34.9574 87.8783 34.9574 87.8783C35.3035 87.1836 35.6496 86.4889 35.6496 86.1415C35.6496 85.7942 34.9574 85.0995 33.573 84.4048C32.8807 84.0575 32.5346 83.7101 32.1885 83.7101C31.8424 83.7101 31.4963 83.7101 31.1502 84.0575C31.1502 84.7522 30.804 85.0995 30.1118 85.7942ZM37.7263 91.0044C39.803 92.3938 41.1874 93.0885 43.2641 94.8252C43.9563 93.7831 44.3025 93.0885 44.3025 92.7411C44.3025 92.3938 43.9563 91.6991 42.918 91.3517C42.2258 91.0044 41.8797 90.657 41.1874 89.9623C40.4952 89.2677 39.803 89.2677 39.4569 89.2677C39.1108 89.2677 38.4185 89.615 37.7263 91.0044Z" fill="#C61010"/>
<path d="M59.5314 65.3009C61.262 67.0376 62.3003 68.427 62.9926 69.1217C63.6848 69.8164 64.0309 70.8584 64.0309 71.9004C64.0309 72.9425 63.6848 74.3319 63.3387 75.3739C62.6464 76.7633 61.9542 77.8053 60.9159 79.1947C59.8775 80.2367 58.8392 81.2788 57.4547 81.9734C56.4164 82.6681 55.032 83.0155 53.9936 83.3628C52.9553 83.3628 51.9169 83.3628 50.8786 82.6681C50.1864 82.3208 48.4558 81.2787 46.7252 79.542C45.3408 78.5 44.6486 78.1526 43.6102 77.1106C41.8797 75.7212 40.4952 74.3319 39.803 73.6372C39.1108 72.9425 38.7646 71.9004 38.7646 70.8584C38.7646 69.8164 39.1108 68.427 39.4569 67.0376C40.1491 65.6482 41.1874 64.2588 42.5719 62.5221C43.9563 61.1327 44.9947 60.0907 46.3791 59.396C47.7636 58.7013 49.148 58.354 50.1864 58.0066C51.5708 58.0066 52.263 58.354 53.3014 58.7013C53.9936 59.396 55.3781 60.438 57.1086 62.1748C57.8009 63.5641 58.4931 63.9115 59.5314 65.3009ZM48.1097 65.9956C47.4175 65.3009 46.7252 64.9535 46.3791 64.6062C46.033 64.6062 45.6869 64.6062 45.3408 64.9535C44.9947 65.3009 44.9947 65.6482 44.9947 65.9956C44.9947 66.3429 45.3408 67.0376 46.3791 67.7323C49.8403 70.8584 51.2247 72.2478 54.6858 75.0265C55.7242 76.0686 56.4164 76.4159 56.7625 76.4159C57.1086 76.4159 57.4547 76.4159 57.8009 76.0686C58.147 75.7212 58.147 75.3739 58.147 75.0265C58.147 74.6792 57.4547 73.9845 56.4164 72.9425C52.9553 70.1637 51.2247 68.7743 48.1097 65.9956Z" fill="#C61010"/>
<path d="M52.2631 52.7964C53.9936 51.0597 55.0319 50.365 57.1086 48.6283C60.2236 45.8495 62.6464 44.1128 64.0309 43.4181C65.4153 42.7234 66.7998 42.3761 67.8381 42.7234C69.2226 43.0708 70.2609 43.7655 71.6454 45.5022C72.6837 46.8916 73.3759 48.281 73.0298 48.9756C73.0298 50.0177 72.3376 50.7124 70.9531 52.1017C72.3376 51.4071 73.3759 51.0597 74.4143 51.0597C75.1065 51.0597 75.7987 51.4071 76.1448 51.7544C76.4909 52.1017 77.1832 52.7964 78.2215 54.5332C79.606 56.6172 80.2982 57.6593 82.0288 59.7433C79.606 61.4801 78.5676 62.1748 76.491 63.9115C74.4143 61.4801 73.3759 60.0907 71.6454 57.6593C70.9531 56.6172 70.2609 56.2699 69.9148 55.9225C69.5687 55.9225 68.8765 56.2699 68.1842 56.9646C70.9531 60.438 72.3376 61.8274 75.1065 65.3009C72.6837 67.3849 71.6454 68.427 69.2226 70.511C61.9542 63.2168 58.8392 59.7433 52.2631 52.7964ZM61.6081 50.0177C62.9925 51.7544 63.6848 52.4491 65.0692 54.1858C65.7614 53.4911 66.1076 53.1438 66.4537 52.7964C66.7998 52.4491 66.4537 51.7544 65.7615 51.0597C65.4153 50.7124 65.4153 50.365 65.0692 50.0177C64.7231 49.323 64.0309 49.323 63.6848 49.323C62.9925 48.9756 62.3003 49.323 61.6081 50.0177Z" fill="#C61010"/>
<path d="M79.2599 32.3031C82.721 37.8606 84.1054 40.6394 87.5666 45.8495C88.951 47.9336 89.6432 49.323 89.9894 50.0177C90.3355 50.7124 90.3355 51.4071 90.3355 52.1018C90.3355 52.7964 89.9894 53.4911 89.2971 54.1858C88.6049 54.8805 87.5666 55.5752 86.1821 56.6172C84.7977 57.3119 84.4515 58.0066 83.0671 58.7013C82.0288 57.3119 81.6826 56.6172 80.6443 55.2279C80.9904 54.8805 81.3365 54.8805 81.3365 54.5332C81.6826 54.1858 82.0288 53.8385 82.3749 53.4911C82.3749 53.1438 82.3749 52.7964 82.3749 52.4491C82.3749 52.1018 82.0288 51.7544 81.3365 51.0597C77.5293 45.5022 75.7987 42.7234 71.9915 37.1659C75.1065 35.0818 76.491 34.0398 79.2599 32.3031Z" fill="#C61010"/>
<path d="M95.5272 23.6195C101.411 31.6084 104.18 35.4292 109.372 43.7655C106.603 44.8075 105.218 45.5022 102.449 46.8916C101.411 45.5022 101.065 44.8075 100.373 43.0708C99.3344 43.4181 98.9883 43.7655 97.95 44.4602C98.6422 46.1969 98.9883 46.8916 99.6805 48.6283C96.9116 50.0177 95.5272 50.7124 93.1044 52.4491C89.6432 43.4181 87.9127 38.9026 84.7977 29.5243C88.951 27.0929 91.0277 25.7035 95.5272 23.6195ZM98.2961 39.5973C96.9116 37.5133 94.8349 34.3872 92.7583 31.261C94.1427 35.7765 95.1811 38.9026 95.8733 40.9867C96.9116 40.292 97.2577 39.9447 98.2961 39.5973Z" fill="#C61010"/>
<path d="M116.64 15.9778C118.717 23.2721 120.101 27.0929 122.178 34.3871C123.908 33.6924 124.947 33.6924 126.677 32.9977C127.023 34.7345 127.37 35.7765 128.062 37.5132C123.562 38.5553 121.14 39.25 116.986 40.9867C113.871 31.9557 112.141 27.4402 109.026 18.4093C111.448 17.3672 113.179 17.0199 116.64 15.9778Z" fill="#C61010"/>
<path d="M138.791 10.7677C142.252 19.7986 143.637 24.6615 146.406 33.6924C143.291 34.0398 141.906 34.3871 139.137 34.7345C138.791 32.9978 138.445 32.3031 138.099 30.5663C137.061 30.9137 136.715 31.261 135.676 31.261C135.676 32.9978 136.022 33.6924 136.022 35.4292C132.907 36.1239 131.523 36.4712 128.754 37.1659C127.716 27.4402 127.37 22.5774 127.023 12.8517C131.523 12.1571 133.946 11.4624 138.791 10.7677ZM137.407 26.7455C136.368 24.3141 135.33 20.8407 134.292 17.0199C134.292 21.5354 134.638 25.0088 134.638 27.0929C135.676 27.0929 136.368 27.0929 137.407 26.7455Z" fill="#C61010"/>
<path d="M164.058 9.03094C164.058 18.7566 164.058 23.2721 164.058 32.9978C161.635 32.9978 160.25 32.9978 157.827 32.9978C156.097 28.8296 155.059 26.7455 153.328 22.2301C153.674 26.3982 153.674 28.8296 154.02 32.9978C151.597 32.9978 150.213 33.3451 148.136 33.6924C146.752 24.3141 146.406 19.4513 145.367 10.073C148.136 9.72564 149.521 9.72564 152.29 9.37829C154.366 13.5464 155.405 15.6305 157.481 19.7986C157.135 15.6305 157.135 13.1991 157.135 9.03094C159.904 9.03094 161.289 9.03094 164.058 9.03094Z" fill="#C61010"/>
<path d="M167.519 9.03094C169.941 9.03094 171.326 9.03095 173.749 9.37829C177.902 9.72564 180.671 10.073 182.055 10.4203C183.44 10.7677 184.478 11.4624 185.17 12.1571C185.863 12.8517 186.209 13.5464 186.209 14.5885C186.209 15.2832 186.209 17.0199 185.863 19.104C185.516 22.5774 185.17 23.9668 184.824 27.4402C184.478 29.5243 184.132 30.9137 183.786 31.6084C183.44 32.3031 183.094 32.6504 182.401 32.9978C181.709 33.3451 181.017 33.6924 179.979 33.6924C178.94 33.6924 177.902 33.6924 176.171 33.6924C172.364 33.3451 170.634 33.3451 167.173 33.3451C167.173 23.2721 167.519 18.4093 167.519 9.03094ZM175.825 13.5464C175.479 19.7986 175.133 22.9247 174.787 29.177C175.825 29.177 176.518 29.177 176.864 28.8296C177.21 28.4823 177.21 27.4402 177.556 26.0509C177.902 22.2301 177.902 20.4933 178.248 16.6725C178.248 15.6305 178.248 14.9358 178.248 14.5885C178.248 14.2411 177.902 13.8938 177.556 13.8938C177.21 13.5464 176.518 13.5464 175.825 13.5464Z" fill="#C61010"/>
<path d="M205.937 21.8828C203.168 21.1881 201.438 20.8407 198.669 20.146C198.669 19.4514 199.015 19.104 199.015 18.4093C199.361 17.7146 199.361 17.0199 199.015 16.6726C199.015 16.3252 198.669 16.3252 197.977 15.9779C197.63 15.9779 196.938 15.9779 196.938 16.3252C196.592 16.6726 196.246 17.0199 196.246 17.7146C196.246 18.4093 196.246 19.104 196.246 19.4514C196.592 19.7987 196.938 20.4934 198.323 21.5354C201.438 23.9668 203.168 25.7036 203.86 27.0929C204.553 28.4823 204.553 30.2191 203.86 32.3031C203.514 34.0398 202.822 35.0819 202.13 35.7766C201.438 36.4713 200.399 36.8186 199.015 37.166C197.63 37.5133 195.9 37.166 194.169 36.8186C192.439 36.4713 190.708 35.7766 189.324 35.0819C187.939 34.3872 187.247 33.3452 186.901 32.3031C186.901 30.9137 186.901 29.5244 187.247 27.7876C187.247 27.0929 187.247 26.7456 187.593 26.3983C190.362 26.7456 191.747 27.0929 194.515 27.7876C194.169 28.8297 194.169 29.5244 193.823 30.5664C193.823 31.2611 193.823 31.6084 193.823 31.9558C193.823 32.3031 194.169 32.3031 194.862 32.6505C195.554 32.9978 195.9 32.6505 195.9 32.3031C196.246 31.9558 196.592 31.6084 196.592 30.9137C196.938 29.5244 196.938 28.4823 196.592 28.135C196.246 27.4403 195.208 26.7456 193.477 25.3562C191.747 23.9668 190.708 22.9248 190.016 22.5775C189.324 22.2301 188.978 21.1881 188.632 20.4934C188.285 19.4514 188.285 18.4093 188.632 17.3673C188.978 15.2832 189.324 13.8938 190.362 13.1991C191.054 12.5045 192.093 11.8098 193.823 11.8098C195.208 11.4624 196.938 11.8098 199.015 12.1571C201.092 12.5045 202.822 13.1991 204.207 14.2412C205.591 15.2832 206.283 15.9779 206.629 17.0199C206.975 18.062 206.629 19.4514 206.283 21.1881C206.283 21.1881 206.283 21.5354 205.937 21.8828Z" fill="#C61010"/>
<path d="M226.012 32.3031C222.897 30.9137 221.512 30.5664 218.397 29.177C219.089 27.7876 219.436 26.7456 219.782 25.3562C220.128 24.3142 220.474 23.6195 220.474 23.2721C220.474 22.9248 220.128 22.5775 219.436 22.5775C218.743 22.2301 218.397 22.2301 218.051 22.5775C217.705 22.9248 217.359 23.6195 217.013 24.6615C215.628 28.8297 214.936 30.9137 213.206 35.0819C212.859 36.1239 212.513 36.8186 212.513 37.166C212.513 37.5133 212.859 37.8606 213.552 38.208C214.244 38.5553 214.59 38.208 214.936 38.208C215.282 37.8606 215.628 37.166 215.974 36.1239C216.321 35.0819 216.667 34.3872 217.013 33.3452C219.782 34.3872 221.512 35.0819 224.281 36.4713C224.281 36.8186 223.935 36.8186 223.935 37.166C222.897 39.5974 222.204 40.9868 221.166 41.6814C220.474 42.3761 219.089 43.0708 217.705 43.0708C215.974 43.4182 214.244 43.0708 212.513 42.3761C210.437 41.6814 209.052 40.6394 207.668 39.5974C206.629 38.5553 205.937 37.5133 205.937 36.1239C205.937 34.7345 205.937 32.9978 206.629 30.9137C207.322 27.7876 207.668 26.3982 208.706 23.9668C209.052 22.2301 209.744 21.1881 210.091 20.146C210.437 19.4513 211.129 18.7567 212.167 18.062C213.206 17.7146 214.244 17.3673 215.628 17.3673C217.013 17.3673 218.743 17.7146 220.474 18.4093C222.897 19.104 224.627 20.4934 226.012 21.5354C227.396 22.9248 227.742 23.9668 228.088 25.3562C228.088 26.3983 227.742 28.135 226.704 30.219C226.358 30.9137 226.358 31.2611 226.012 32.3031Z" fill="#C61010"/>
<path d="M246.086 30.9137C242.971 40.292 241.241 44.8075 237.78 53.8385C235.357 52.1018 233.972 51.4071 231.203 50.0177C231.896 48.281 232.242 47.5863 232.934 46.1969C231.896 45.5022 231.55 45.5022 230.511 44.8075C229.473 46.1969 229.127 46.8916 228.088 48.281C225.32 46.8916 223.935 46.1969 221.166 45.1549C226.358 37.1659 229.127 32.9978 235.011 25.0088C239.51 27.0929 241.933 28.4823 246.086 30.9137ZM235.011 42.0288C236.049 39.5973 237.087 36.4712 238.818 32.6504C236.049 36.4712 233.972 38.9026 232.934 40.9867C233.28 41.3341 233.972 41.6814 235.011 42.0288Z" fill="#C61010"/>
<path d="M251.624 34.3871C254.739 36.1238 256.124 37.1659 258.892 39.2499C260.969 40.6393 262.354 42.0287 263.046 42.7234C264.084 43.7654 264.43 44.4601 264.776 45.5021C265.122 46.1968 264.776 46.8915 264.776 47.5862C264.43 48.2809 263.738 49.3229 263.046 50.365C262.354 51.0597 262.354 51.407 261.661 52.1017C260.623 53.1437 259.931 54.1858 259.239 54.1858C258.546 54.5331 257.508 54.5331 256.47 54.1858C255.431 53.8384 254.047 53.1437 252.662 52.1017C251.97 51.7544 251.624 51.407 250.932 50.7123C248.855 53.8384 247.471 55.5752 245.394 58.7013C242.971 56.9645 241.587 56.2698 239.164 54.5331C244.01 46.1968 246.778 42.376 251.624 34.3871ZM256.47 42.376C255.085 44.4601 254.393 45.5022 253.008 47.2389C253.355 47.2389 253.355 47.5862 253.355 47.5862C254.047 47.9336 254.393 48.2809 254.739 48.2809C255.085 48.2809 255.777 47.9336 256.124 47.2389C256.47 46.5442 256.816 46.1968 257.162 45.5021C257.508 44.8075 257.854 44.4601 257.508 43.7654C258.2 43.7654 257.508 43.0707 256.47 42.376Z" fill="#C61010"/>
<path d="M275.852 52.7964C269.276 59.7433 266.161 63.2168 259.585 70.1637C257.508 68.0796 256.124 67.0376 253.701 64.9535C259.931 57.6592 262.7 53.8385 268.93 46.5442C271.699 49.323 273.083 50.365 275.852 52.7964Z" fill="#C61010"/>
<path d="M292.119 70.511C284.505 76.4159 281.044 79.542 273.429 85.4468C271.699 83.3628 270.66 82.3207 268.93 80.2367C271.006 76.0685 272.045 73.9845 274.121 69.8163C271.006 72.9424 269.276 74.3318 266.161 77.1106C264.43 75.0265 263.392 74.3318 261.661 72.5951C268.237 65.6482 271.699 62.1747 278.275 55.5752C280.351 57.6592 281.39 58.7013 283.466 61.1327C281.736 65.6482 280.698 67.7322 278.967 72.2477C282.082 69.469 283.813 68.0796 286.928 65.3008C289.004 67.0376 290.043 68.0796 292.119 70.511Z" fill="#C61010"/>
<path d="M298.695 96.2146C296.965 93.0885 295.927 91.3517 293.85 88.2256C294.542 87.8783 294.888 87.5309 295.58 87.1836C296.619 86.4889 297.311 85.7942 297.657 85.4469C298.003 85.0995 297.657 84.7522 297.311 84.0575C296.965 83.7101 296.619 83.3628 296.273 83.3628C295.927 83.3628 295.234 83.7101 294.196 84.4048C290.389 86.8362 288.658 88.2256 284.851 91.0044C283.813 91.6991 283.466 92.0464 283.12 92.3938C282.774 92.7411 283.12 93.0885 283.466 93.4358C283.813 93.7831 284.159 94.1305 284.505 94.1305C284.851 94.1305 285.543 93.7831 286.581 93.0884C287.62 92.3938 287.966 92.0464 289.004 91.6991C288.658 91.0044 288.312 90.657 287.966 90.3097C289.004 89.615 289.696 89.2677 291.081 88.2256C293.504 91.6991 294.542 93.4358 296.619 97.2566C292.119 99.688 290.043 101.077 285.543 103.509C284.505 101.772 283.813 100.73 282.774 98.9933C283.12 98.2986 283.466 97.9513 283.813 97.6039C282.774 97.6039 282.082 97.2566 281.39 96.5619C280.698 96.2146 280.005 95.1725 279.313 94.4778C278.621 93.4358 277.929 92.0464 277.929 91.0044C277.583 89.615 277.583 88.573 277.929 87.5309C278.275 86.4889 278.621 85.7942 278.967 85.0995C279.659 84.4048 280.351 83.7101 281.736 82.6681C283.813 80.9314 285.197 80.2367 287.274 78.5C289.004 77.1106 290.389 76.4159 291.427 76.0685C292.465 75.7212 293.85 76.0685 295.58 76.7632C297.311 77.8053 299.042 79.1946 300.426 81.6261C301.81 84.0575 302.849 86.1415 303.195 88.2256C303.541 90.3097 303.195 91.6991 302.849 92.7411C302.157 93.7831 301.118 94.8252 299.388 95.5199C299.388 95.8672 299.042 96.2146 298.695 96.2146Z" fill="#C61010"/>
<path d="M176.171 109.761C176.171 109.761 182.055 96.9092 181.363 92.0464C181.363 91.3517 181.017 90.3097 180.671 89.2676C179.286 85.0995 177.21 80.2367 172.364 77.1106C166.48 73.6371 169.941 77.8052 169.941 77.8052L176.171 83.7101C176.171 83.7101 178.248 87.8783 178.594 87.8783C178.94 87.8783 178.594 89.615 178.594 89.615L178.248 95.1725C178.248 95.1725 177.21 100.035 177.21 100.383C177.21 101.425 176.171 109.761 176.171 109.761Z" fill="#C61010"/>
<path d="M178.594 109.761C178.594 109.761 187.939 87.8783 178.594 79.8893C169.249 71.9004 156.097 67.3849 155.751 67.0376C155.751 66.6902 155.751 65.9955 156.097 64.9535C156.443 63.9115 161.635 63.9114 161.635 63.9114L176.171 71.2057C176.518 71.2057 182.748 77.8053 183.786 79.1946C184.824 80.584 185.863 88.2256 186.209 88.573C186.555 88.9203 185.517 101.077 185.17 101.425C184.824 101.772 185.517 104.203 185.517 104.203C185.517 104.203 182.748 107.33 180.325 108.719C178.594 109.761 178.594 109.761 178.594 109.761Z" fill="#C61010"/>
<path d="M173.056 75.7212C173.056 75.7212 182.748 83.3628 182.748 93.0884C182.748 102.814 184.824 91.0044 184.824 91.0044C184.824 91.0044 183.44 83.0154 183.44 82.3207C183.44 81.626 181.363 77.1106 180.671 76.7632C179.633 76.0685 175.133 73.9844 175.133 73.9844L173.056 75.7212Z" fill="#C61010"/>
<path d="M64.7231 135.465V138.938L63.3387 139.98L65.0692 143.453H60.2236L59.5314 142.411C57.8009 143.453 56.4164 144.148 55.032 144.148C53.6475 144.148 52.2631 143.801 51.5708 142.759C50.8786 141.717 50.5325 140.675 50.5325 139.285C50.5325 138.243 50.8786 137.201 51.2247 136.507C51.5708 135.812 52.2631 135.465 53.3014 135.117C51.9169 134.075 51.2247 132.686 51.2247 131.296C51.2247 129.907 51.5708 128.865 52.6092 127.823C53.6475 126.781 55.032 126.434 56.7625 126.434C58.147 126.434 59.5314 126.781 60.2236 127.823C61.262 128.518 61.6081 129.907 61.6081 130.949C61.6081 132.338 60.9159 133.728 59.8775 134.77L61.6081 137.896L64.7231 135.465ZM57.8009 139.633L56.0703 136.854C55.7242 137.549 55.3781 138.243 55.3781 138.938C55.3781 139.285 55.3781 139.633 55.7242 139.98C56.0703 140.327 56.0703 140.327 56.7625 140.327C57.1086 140.327 57.4547 140.327 57.8009 139.633ZM56.7625 131.644C57.4547 130.949 57.8009 130.254 57.8009 129.56C57.8009 129.212 57.8009 128.865 57.4548 128.865C57.4548 128.518 57.1086 128.518 56.7625 128.518C56.4164 128.518 56.4164 128.518 56.0703 128.865C55.7242 129.212 55.7242 129.212 55.7242 129.56C55.7242 130.254 56.0703 131.296 56.7625 131.644Z" fill="#C61010"/>
<path d="M78.2215 131.644V128.17C78.2215 127.128 78.2215 126.434 78.2215 126.086C78.2215 125.739 77.8754 125.739 77.5293 125.739C77.1832 125.739 76.8371 125.739 76.8371 126.086C76.8371 126.434 76.491 127.128 76.491 128.17V137.896C76.491 138.938 76.491 139.633 76.8371 139.98C77.1832 140.327 77.1832 140.327 77.5293 140.327C77.8754 140.327 78.2215 140.327 78.2215 139.98C78.2215 139.633 78.5676 138.938 78.5676 137.896V135.465H83.7593V136.159C83.7593 138.243 83.7593 139.98 83.4132 140.675C83.0671 141.717 82.3749 142.411 81.3365 143.106C80.2982 143.801 78.9137 144.148 77.5293 144.148C75.7987 144.148 74.7604 143.801 73.722 143.453C72.6837 142.759 71.9915 142.064 71.6454 141.022C71.2993 139.98 71.2993 138.591 71.2993 136.507V130.602C71.2993 129.212 71.2993 127.823 71.2993 127.128C71.2993 126.434 71.6454 125.739 72.3376 125.044C72.6837 124.35 73.3759 123.655 74.4143 123.307C75.4526 122.96 76.4909 122.613 77.5293 122.613C79.2599 122.613 80.2982 122.96 81.3365 123.655C82.3749 124.35 83.0671 125.044 83.4132 126.086C83.7593 127.128 83.7593 128.518 83.7593 130.254V131.644H78.2215Z" fill="#C61010"/>
<path d="M97.2577 134.77C97.2577 136.854 97.2577 138.243 97.2577 139.285C97.2577 140.327 96.9116 141.022 96.2194 141.717C95.8733 142.411 95.181 143.106 94.1427 143.454C93.1044 143.801 92.4121 144.148 91.0277 144.148C89.9894 144.148 88.951 143.801 87.9127 143.454C86.8743 143.106 86.1821 142.411 85.836 141.717C85.4899 141.022 85.1438 140.327 84.7977 139.285C84.4516 138.243 84.7977 136.854 84.7977 134.77V131.296C84.7977 129.212 84.7977 127.823 84.7977 126.781C84.7977 125.739 85.1438 125.044 85.836 124.35C86.1821 123.655 86.8743 122.96 87.9127 122.613C88.951 122.265 89.6432 121.918 91.0277 121.918C92.066 121.918 93.1044 122.265 94.1427 122.613C95.181 122.96 95.8733 123.655 96.2194 124.35C96.9116 125.044 96.9116 125.739 97.2577 126.781C97.2577 127.476 97.2577 129.212 97.2577 131.296V134.77ZM92.066 127.823C92.066 126.781 92.066 126.086 92.066 126.086C92.066 125.739 91.7199 125.739 91.3738 125.739C91.0277 125.739 91.0277 125.739 90.6816 126.086C90.6816 126.434 90.3355 126.781 90.3355 128.17V137.896C90.3355 138.938 90.3355 139.98 90.3355 139.98C90.3355 140.327 90.6816 140.327 91.0277 140.327C91.3738 140.327 91.7199 140.327 91.7199 139.98C91.7199 139.633 91.7199 138.938 91.7199 137.549V127.823H92.066Z" fill="#C61010"/>
<path d="M111.448 122.613V143.106H106.603L103.834 133.728V143.106H99.3344V122.613H103.834L106.949 131.991V122.613H111.448Z" fill="#C61010"/>
<path d="M124.947 128.865H120.101V127.476C120.101 126.781 120.101 126.434 119.755 126.086C119.409 125.739 119.409 125.739 119.063 125.739C118.717 125.739 118.371 125.739 118.371 126.086C118.371 126.434 118.024 126.781 118.024 127.128C118.024 127.823 118.024 128.17 118.371 128.518C118.717 128.865 119.063 129.212 119.755 129.907C122.178 131.296 123.562 132.338 124.255 133.38C124.947 134.423 125.293 135.812 125.293 137.896C125.293 139.285 125.293 140.327 124.947 141.022C124.601 141.717 123.908 142.411 122.87 142.759C121.832 143.106 120.793 143.453 119.409 143.453C118.024 143.453 116.64 143.106 115.602 142.759C114.563 142.064 113.871 141.369 113.525 140.675C113.179 139.98 113.179 138.591 113.179 137.201V135.812H118.024V138.243C118.024 138.938 118.024 139.633 118.371 139.633C118.717 139.633 118.717 139.98 119.063 139.98C119.409 139.98 119.755 139.98 119.755 139.633C120.101 139.285 120.101 138.938 120.101 138.243C120.101 136.854 120.101 136.159 119.755 135.812C119.409 135.465 118.717 134.77 117.332 134.075C115.948 133.033 115.256 132.686 114.563 131.991C113.871 131.296 113.871 130.949 113.525 130.254C113.179 129.56 113.179 128.518 113.179 127.476C113.179 125.739 113.525 124.697 113.871 124.002C114.217 123.307 114.909 122.613 115.948 122.265C116.986 121.918 118.024 121.571 119.063 121.571C120.447 121.571 121.486 121.918 122.524 122.265C123.562 122.613 124.255 123.307 124.601 124.002C124.947 124.697 124.947 125.739 124.947 127.476V128.865Z" fill="#C61010"/>
<path d="M137.753 122.613V126.781H134.638V143.454H129.446V126.781H126.331V122.613H137.753Z" fill="#C61010"/>
<path d="M142.599 122.613C145.021 122.613 146.752 122.613 147.79 122.96C148.829 123.307 149.521 123.655 149.867 124.35C150.559 125.044 150.559 126.434 150.559 128.17C150.559 129.907 150.213 130.949 149.867 131.296C149.521 131.991 148.829 132.338 147.444 132.338C148.482 132.686 149.175 133.033 149.521 133.381C149.867 133.728 150.213 134.075 150.213 134.77C150.213 135.117 150.213 136.159 150.213 137.896V143.454H145.367V136.507C145.367 135.465 145.367 134.77 145.021 134.423C145.021 134.075 144.329 134.075 143.637 134.075V143.454H138.445V122.613H142.599ZM144.329 126.086V130.602C145.021 130.602 145.367 130.602 145.714 130.254C146.06 129.907 146.06 129.56 146.06 128.518V127.476C146.06 126.781 146.06 126.434 145.714 126.086C145.367 125.739 145.021 126.086 144.329 126.086Z" fill="#C61010"/>
<path d="M165.096 136.507C165.096 138.243 165.096 139.285 165.096 139.633C165.096 139.98 164.75 141.022 164.058 141.717C163.365 142.411 163.019 142.759 161.981 143.106C161.289 143.454 160.25 143.454 159.212 143.454C157.827 143.454 156.789 143.106 156.097 142.759C155.059 142.411 154.366 141.717 154.02 141.022C153.674 140.327 153.328 139.633 153.328 138.938C153.328 138.243 153.328 136.854 153.328 134.423V122.265H158.52V137.896C158.52 138.938 158.52 139.285 158.52 139.633C158.52 139.98 158.866 139.98 159.212 139.98C159.558 139.98 159.904 139.98 159.904 139.633C159.904 139.285 159.904 138.591 159.904 137.549V122.265H165.096V136.507Z" fill="#C61010"/>
<path d="M174.441 131.644V128.17C174.441 127.128 174.441 126.434 174.441 126.086C174.441 125.739 174.095 125.739 173.749 125.739C173.403 125.739 173.056 125.739 173.056 126.086C173.056 126.434 172.71 127.128 172.71 128.17V137.896C172.71 138.938 172.71 139.633 173.056 139.98C173.056 140.327 173.403 140.327 173.749 140.327C174.095 140.327 174.441 140.327 174.441 139.98C174.441 139.633 174.787 138.938 174.787 137.896V135.465H179.979V136.159C179.979 138.243 179.979 139.98 179.633 140.675C179.286 141.717 178.594 142.411 177.556 143.106C176.518 143.801 175.133 144.148 173.749 144.148C172.018 144.148 170.98 143.801 169.941 143.453C168.903 143.106 168.211 142.064 167.865 141.022C167.519 139.98 167.519 138.591 167.519 136.507V130.602C167.519 129.212 167.519 127.823 167.519 127.128C167.519 126.434 167.865 125.739 168.557 125.044C168.903 124.35 169.595 123.655 170.634 123.307C171.672 122.96 172.71 122.613 173.749 122.613C175.479 122.613 176.518 122.96 177.556 123.655C178.594 124.35 179.286 125.044 179.633 126.086C179.979 127.128 179.979 128.518 179.979 130.254V131.644H174.441Z" fill="#C61010"/>
<path d="M192.439 122.613V126.781H189.324V143.454H184.132V126.781H181.017V122.613H192.439Z" fill="#C61010"/>
<path d="M199.015 122.613V143.106H193.823V122.613H199.015Z" fill="#C61010"/>
<path d="M213.206 134.77C213.206 136.854 213.206 138.243 213.206 139.285C213.206 140.327 212.859 141.022 212.167 141.717C211.821 142.411 211.129 143.106 210.09 143.454C209.052 143.801 208.36 144.148 206.975 144.148C205.937 144.148 204.899 143.801 203.86 143.454C202.822 143.106 202.13 142.411 201.784 141.717C201.438 141.022 201.092 140.327 200.745 139.285C200.399 138.243 200.745 136.854 200.745 134.77V131.296C200.745 129.212 200.745 127.823 200.745 126.781C200.745 125.739 201.092 125.044 201.784 124.35C202.13 123.655 202.822 122.96 203.86 122.613C204.899 122.265 205.591 121.918 206.975 121.918C208.014 121.918 209.052 122.265 210.09 122.613C211.129 122.96 211.821 123.655 212.167 124.35C212.859 125.044 212.859 125.739 213.206 126.781C213.552 127.823 213.206 129.212 213.206 131.296V134.77ZM208.014 127.823C208.014 126.781 208.014 126.086 208.014 126.086C208.014 125.739 207.668 125.739 207.322 125.739C206.975 125.739 206.975 125.739 206.629 126.086C206.629 126.434 206.283 126.781 206.283 128.17V137.896C206.283 138.938 206.283 139.98 206.283 139.98C206.283 140.327 206.629 140.327 206.975 140.327C207.322 140.327 207.668 140.327 207.668 139.98C207.668 139.633 207.668 138.938 207.668 137.549V127.823H208.014Z" fill="#C61010"/>
<path d="M227.396 122.613V143.106H222.551L219.782 133.728V143.106H215.282V122.613H219.782L222.897 131.991V122.613H227.396Z" fill="#C61010"/>
<path d="M239.51 122.613V143.106H234.318V122.613H239.51Z" fill="#C61010"/>
<path d="M253.355 122.613V143.106H248.509L245.74 133.728V143.106H241.241V122.613H245.74L248.855 131.991V122.613H253.355Z" fill="#C61010"/>
<path d="M263.046 131.644V128.17C263.046 127.128 263.046 126.434 263.046 126.086C263.046 125.739 262.7 125.739 262.354 125.739C262.007 125.739 261.661 125.739 261.661 126.086C261.661 126.434 261.315 127.128 261.315 128.17V137.896C261.315 138.938 261.315 139.633 261.661 139.98C261.661 140.327 262.007 140.327 262.354 140.327C262.7 140.327 263.046 140.327 263.046 139.98C263.046 139.633 263.392 138.938 263.392 137.896V135.465H268.584V136.159C268.584 138.243 268.584 139.98 268.237 140.675C267.891 141.717 267.199 142.411 266.161 143.106C265.122 143.801 263.738 144.148 262.354 144.148C260.623 144.148 259.585 143.801 258.546 143.453C257.508 143.106 256.816 142.064 256.47 141.022C256.124 139.98 256.124 138.591 256.124 136.507V130.602C256.124 129.212 256.124 127.823 256.124 127.128C256.124 126.434 256.47 125.739 257.162 125.044C257.508 124.35 258.2 123.655 259.239 123.307C260.277 122.96 261.315 122.613 262.354 122.613C264.084 122.613 265.122 122.96 266.161 123.655C267.199 124.35 267.891 125.044 268.237 126.086C268.584 127.128 268.584 128.518 268.584 130.254V131.644H263.046Z" fill="#C61010"/>
<path d="M273.429 138.938V143.106H269.622V138.938H273.429Z" fill="#C61010"/>
</svg>
