<svg width="11" height="10" viewBox="0 0 11 10" fill="none" xmlns="http://www.w3.org/2000/svg">
<path d="M0 6.05263C0.134146 5.92105 0.134146 5.92105 0.268293 5.92105C1.07317 6.44737 1.87805 6.8421 2.81707 7.36842C2.95122 7.5 3.08537 7.5 3.08537 7.36842C4.82927 5 6.57317 3.02632 8.85366 1.31579C9.39024 0.789474 10.061 0.526316 10.7317 0C10.8659 0 10.8659 0 11 0.131579C10.7317 0.394737 10.4634 0.657895 10.1951 0.789474C8.18293 2.63158 6.43902 4.73684 5.09756 7.10526C4.56098 8.02632 4.15854 8.81579 3.62195 9.73684C3.48781 9.86842 3.4878 9.86842 3.35366 9.73684C2.28049 8.68421 1.20732 7.36842 0 6.05263C0 6.18421 0 6.05263 0 6.05263Z" fill="white"/>
</svg>