<svg width="60" height="60" viewBox="0 0 60 60" fill="none" xmlns="http://www.w3.org/2000/svg">
<circle cx="30" cy="30" r="30" fill="#C61010"/>
<path d="M26.3896 17.8066H34.3418C34.3418 17.8066 35.3384 23.0595 31.3727 25.1646V35.6702H35.8367L36.0028 42.8708C36.0028 42.8708 33.3452 48.1236 30.7705 47.8875C28.1959 47.6515 25.3514 42.9691 25.3514 42.9691C25.3514 42.9691 24.687 35.926 25.1853 35.7489C25.6836 35.5719 29.7739 35.5522 29.7739 35.5522L29.6078 25.1842C29.6078 25.1842 25.3722 24.3579 26.3896 17.8066Z" stroke="white" stroke-miterlimit="10"/>
<path d="M27.4277 19.2035H33.0129C33.0129 19.2035 32.9714 22.9021 31.6011 23.2759C30.2307 23.6497 29.504 23.4726 29.0265 23.2759C28.5489 23.0791 27.3031 21.8987 27.4277 19.2035Z" stroke="white" stroke-width="0.5" stroke-miterlimit="10"/>
</svg>
