<svg width="19" height="26" viewBox="0 0 19 26" fill="none" xmlns="http://www.w3.org/2000/svg">
<g clip-path="url(#clip0_36_15)">
<path d="M18.363 13.1777C18.3088 13.2599 18.241 13.3969 18.1461 13.5065C18.0647 13.5887 17.9562 13.6435 17.8477 13.6709C16.7221 13.9997 16.261 14.7394 16.4101 15.9038C16.4644 16.3558 16.2338 16.6024 15.7727 16.5613C14.5522 16.4517 13.7792 16.9723 13.4401 18.1777C13.3452 18.5065 13.1146 18.6709 12.762 18.4791C12.7214 18.4517 12.6671 18.4654 12.6264 18.438C11.5957 17.849 10.7142 18.0134 9.96832 18.9586C9.6564 19.3421 9.33092 19.3421 9.019 18.9586C8.99188 18.9175 8.95119 18.9038 8.92407 18.8627C8.24598 18.0134 7.43228 17.8764 6.49652 18.3969C5.94049 18.712 5.61501 18.4928 5.42514 17.9312C5.39802 17.8627 5.35733 17.8079 5.34377 17.7531C5.09966 16.9312 4.59788 16.5887 3.7028 16.6024C2.63142 16.6161 2.57718 16.5339 2.59074 15.438C2.6043 14.6161 2.29238 14.164 1.53292 13.849C0.556479 13.438 0.502232 13.3558 0.909084 12.4106C1.27525 11.5339 1.12607 10.8901 0.434423 10.3284C-0.108046 9.86268 -0.162293 9.41062 0.4073 8.94487C1.18032 8.31473 1.34306 7.575 0.841275 6.68459C0.529355 6.12295 0.637849 5.68459 1.30237 5.49281C2.30594 5.20514 2.69923 4.53391 2.59074 3.50651C2.53649 2.91747 2.76704 2.6024 3.40444 2.6572C4.4487 2.73939 5.15391 2.32843 5.45227 1.25994C5.60144 0.71199 5.95405 0.547607 6.48296 0.821579C6.52364 0.848976 6.56433 0.848976 6.60501 0.876374C7.48653 1.35583 8.23242 1.20514 8.8427 0.41062C9.24955 -0.123626 9.68353 -0.151024 10.0904 0.396922C10.7549 1.25994 11.555 1.32843 12.4637 0.848976C13.0062 0.561305 13.3859 0.71199 13.5351 1.28733C13.8334 2.42432 14.6336 2.71199 15.6643 2.6572C16.2338 2.6161 16.4508 2.89007 16.4101 3.43802C16.4101 3.50651 16.4237 3.575 16.4237 3.6435C16.3152 4.56131 16.6949 5.10925 17.5765 5.45172C18.4715 5.80788 18.5122 5.90377 18.1325 6.75309C17.7121 7.6572 17.8613 8.34213 18.6071 8.95857C19.1632 9.42432 19.1632 9.89007 18.58 10.3421C18.5665 10.3558 18.5529 10.3832 18.5393 10.3969C17.8613 10.9586 17.685 11.6161 18.1189 12.4243C18.2139 12.6161 18.2545 12.8764 18.363 13.1777ZM9.52079 16.1229C13.0604 16.1093 15.9355 13.2051 15.949 9.6298C15.9626 6.04076 13.0333 3.09555 9.4801 3.10925C5.92693 3.12295 2.99759 6.10925 3.05184 9.67089C3.09252 13.2599 5.98117 16.1366 9.52079 16.1229Z" fill="white"/>
<path d="M8.80157 20.0686C7.96074 21.8905 7.11992 23.7261 6.2384 25.548C5.95361 26.1371 5.45182 26.1508 5.09922 25.5891C4.80086 25.1097 4.54319 24.6028 4.27195 24.096C4.06852 23.7261 3.79729 23.5891 3.37688 23.6987C2.84797 23.822 2.31906 23.9316 1.79015 24.0138C1.207 24.096 0.854393 23.685 1.0985 23.1371C1.89865 21.3562 2.72591 19.5754 3.55318 17.822C3.77017 17.3699 4.09565 17.4795 4.3262 17.8083C4.51606 18.0686 4.61099 18.3699 4.76017 18.6576C5.16703 19.4384 5.64169 19.6439 6.48251 19.3973C7.78444 19.0275 7.78444 19.0275 8.80157 20.0686Z" fill="white"/>
<path d="M17.0878 23.9453C16.7216 23.8768 16.2063 23.7809 15.7045 23.6713C15.2298 23.5754 14.8772 23.6987 14.6602 24.1781C14.4433 24.6576 14.1856 25.1097 13.9279 25.5617C13.5889 26.1371 13.0871 26.1234 12.8023 25.5206C11.975 23.7946 11.1749 22.0686 10.3883 20.3288C10.3205 20.1918 10.4019 19.9042 10.5103 19.7672C10.9986 19.1645 11.541 18.9864 12.3276 19.3288C13.3719 19.7809 13.7787 19.5206 14.3483 18.5069C14.5382 18.1645 14.8501 17.8905 15.1213 17.5891C15.3383 17.9042 15.6096 18.1919 15.7723 18.5343C16.4911 20.0275 17.2098 21.5343 17.9015 23.0412C18.1592 23.6302 17.9015 23.9864 17.0878 23.9453Z" fill="white"/>
<path d="M5.66975 8.24V11H4.80575V9.272C4.80575 9.21067 4.80708 9.15067 4.80975 9.092C4.81508 9.03333 4.82442 8.97467 4.83775 8.916L4.20175 9.04L4.10175 8.508L4.80575 8.24H5.66975ZM7.26903 8.184C7.56236 8.184 7.7957 8.228 7.96903 8.316C8.14236 8.40133 8.26636 8.54933 8.34103 8.76C8.4157 8.968 8.45303 9.25467 8.45303 9.62C8.45303 9.98533 8.4157 10.2733 8.34103 10.484C8.26636 10.692 8.14236 10.84 7.96903 10.928C7.7957 11.0133 7.56236 11.056 7.26903 11.056C6.97836 11.056 6.74636 11.0133 6.57303 10.928C6.40236 10.84 6.2797 10.692 6.20503 10.484C6.13036 10.2733 6.09303 9.98533 6.09303 9.62C6.09303 9.25467 6.13036 8.968 6.20503 8.76C6.2797 8.54933 6.40236 8.40133 6.57303 8.316C6.74636 8.228 6.97836 8.184 7.26903 8.184ZM7.26503 8.828C7.20103 8.828 7.14903 8.83733 7.10903 8.856C7.06903 8.872 7.03703 8.90667 7.01303 8.96C6.9917 9.01067 6.9757 9.08933 6.96503 9.196C6.95703 9.3 6.95303 9.44133 6.95303 9.62C6.95303 9.79867 6.95703 9.94133 6.96503 10.048C6.9757 10.152 6.9917 10.2307 7.01303 10.284C7.03703 10.3347 7.06903 10.3693 7.10903 10.388C7.14903 10.404 7.20103 10.412 7.26503 10.412C7.3317 10.412 7.38636 10.404 7.42903 10.388C7.4717 10.3693 7.50503 10.3347 7.52903 10.284C7.55303 10.2307 7.56903 10.152 7.57703 10.048C7.5877 9.94133 7.59303 9.79867 7.59303 9.62C7.59303 9.44133 7.5877 9.3 7.57703 9.196C7.56903 9.08933 7.55303 9.01067 7.52903 8.96C7.50503 8.90667 7.4717 8.872 7.42903 8.856C7.38636 8.83733 7.3317 8.828 7.26503 8.828ZM9.90184 8.184C10.1952 8.184 10.4285 8.228 10.6018 8.316C10.7752 8.40133 10.8992 8.54933 10.9738 8.76C11.0485 8.968 11.0858 9.25467 11.0858 9.62C11.0858 9.98533 11.0485 10.2733 10.9738 10.484C10.8992 10.692 10.7752 10.84 10.6018 10.928C10.4285 11.0133 10.1952 11.056 9.90184 11.056C9.61118 11.056 9.37918 11.0133 9.20584 10.928C9.03518 10.84 8.91251 10.692 8.83784 10.484C8.76318 10.2733 8.72584 9.98533 8.72584 9.62C8.72584 9.25467 8.76318 8.968 8.83784 8.76C8.91251 8.54933 9.03518 8.40133 9.20584 8.316C9.37918 8.228 9.61118 8.184 9.90184 8.184ZM9.89784 8.828C9.83384 8.828 9.78184 8.83733 9.74184 8.856C9.70184 8.872 9.66984 8.90667 9.64584 8.96C9.62451 9.01067 9.60851 9.08933 9.59784 9.196C9.58984 9.3 9.58584 9.44133 9.58584 9.62C9.58584 9.79867 9.58984 9.94133 9.59784 10.048C9.60851 10.152 9.62451 10.2307 9.64584 10.284C9.66984 10.3347 9.70184 10.3693 9.74184 10.388C9.78184 10.404 9.83384 10.412 9.89784 10.412C9.96451 10.412 10.0192 10.404 10.0618 10.388C10.1045 10.3693 10.1378 10.3347 10.1618 10.284C10.1858 10.2307 10.2018 10.152 10.2098 10.048C10.2205 9.94133 10.2258 9.79867 10.2258 9.62C10.2258 9.44133 10.2205 9.3 10.2098 9.196C10.2018 9.08933 10.1858 9.01067 10.1618 8.96C10.1378 8.90667 10.1045 8.872 10.0618 8.856C10.0192 8.83733 9.96451 8.828 9.89784 8.828ZM12.0347 8.184C12.216 8.184 12.36 8.20933 12.4667 8.26C12.5733 8.308 12.6493 8.392 12.6947 8.512C12.7427 8.62933 12.7667 8.79467 12.7667 9.008C12.7667 9.21867 12.7427 9.384 12.6947 9.504C12.6493 9.624 12.5733 9.70933 12.4667 9.76C12.36 9.808 12.216 9.832 12.0347 9.832C11.856 9.832 11.7133 9.808 11.6067 9.76C11.5027 9.70933 11.4267 9.624 11.3787 9.504C11.3333 9.384 11.3107 9.21867 11.3107 9.008C11.3107 8.79467 11.3333 8.62933 11.3787 8.512C11.4267 8.392 11.5027 8.308 11.6067 8.26C11.7133 8.20933 11.856 8.184 12.0347 8.184ZM14.0747 8.24L12.5547 11H12.0507L13.5707 8.24H14.0747ZM12.0347 8.62C12.0027 8.62 11.9787 8.62667 11.9627 8.64C11.9467 8.65333 11.936 8.688 11.9307 8.744C11.9253 8.79733 11.9227 8.88533 11.9227 9.008C11.9227 9.13067 11.9253 9.22 11.9307 9.276C11.936 9.32933 11.9467 9.36267 11.9627 9.376C11.9787 9.38933 12.0027 9.396 12.0347 9.396C12.0693 9.396 12.0947 9.38933 12.1107 9.376C12.1267 9.36267 12.1373 9.32933 12.1427 9.276C12.1507 9.22 12.1547 9.13067 12.1547 9.008C12.1547 8.88533 12.1507 8.79733 12.1427 8.744C12.1373 8.688 12.1267 8.65333 12.1107 8.64C12.0947 8.62667 12.0693 8.62 12.0347 8.62ZM14.0907 9.408C14.272 9.408 14.416 9.43333 14.5227 9.484C14.6293 9.532 14.7053 9.616 14.7507 9.736C14.7987 9.85333 14.8227 10.0187 14.8227 10.232C14.8227 10.4427 14.7987 10.608 14.7507 10.728C14.7053 10.848 14.6293 10.9333 14.5227 10.984C14.416 11.032 14.272 11.056 14.0907 11.056C13.912 11.056 13.7693 11.032 13.6627 10.984C13.5587 10.9333 13.4827 10.848 13.4347 10.728C13.3893 10.608 13.3667 10.4427 13.3667 10.232C13.3667 10.0187 13.3893 9.85333 13.4347 9.736C13.4827 9.616 13.5587 9.532 13.6627 9.484C13.7693 9.43333 13.912 9.408 14.0907 9.408ZM14.0907 9.844C14.0587 9.844 14.0347 9.85067 14.0187 9.864C14.0027 9.87733 13.992 9.91067 13.9867 9.964C13.9813 10.0173 13.9787 10.1067 13.9787 10.232C13.9787 10.3547 13.9813 10.444 13.9867 10.5C13.992 10.5533 14.0027 10.5867 14.0187 10.6C14.0347 10.6133 14.0587 10.62 14.0907 10.62C14.1253 10.62 14.1507 10.6133 14.1667 10.6C14.1827 10.5867 14.1933 10.5533 14.1987 10.5C14.2067 10.444 14.2107 10.3547 14.2107 10.232C14.2107 10.1067 14.2067 10.0173 14.1987 9.964C14.1933 9.91067 14.1827 9.87733 14.1667 9.864C14.1507 9.85067 14.1253 9.844 14.0907 9.844Z" fill="white"/>
</g>
<defs>
<clipPath id="clip0_36_15">
<rect width="19" height="26" fill="white"/>
</clipPath>
</defs>
</svg>
