<svg width="19" height="26" viewBox="0 0 19 26" fill="none" xmlns="http://www.w3.org/2000/svg">
<g clip-path="url(#clip0_52_128)">
<path d="M18.363 13.1777C18.3088 13.2599 18.241 13.3969 18.1461 13.5065C18.0647 13.5887 17.9562 13.6435 17.8477 13.6709C16.7221 13.9997 16.261 14.7394 16.4101 15.9038C16.4644 16.3558 16.2338 16.6024 15.7727 16.5613C14.5522 16.4517 13.7792 16.9723 13.4401 18.1777C13.3452 18.5065 13.1146 18.6709 12.762 18.4791C12.7214 18.4517 12.6671 18.4654 12.6264 18.438C11.5957 17.849 10.7142 18.0134 9.96832 18.9586C9.6564 19.3421 9.33092 19.3421 9.019 18.9586C8.99188 18.9175 8.95119 18.9038 8.92407 18.8627C8.24598 18.0134 7.43228 17.8764 6.49652 18.3969C5.94049 18.712 5.61501 18.4928 5.42514 17.9312C5.39802 17.8627 5.35733 17.8079 5.34377 17.7531C5.09966 16.9312 4.59788 16.5887 3.7028 16.6024C2.63142 16.6161 2.57718 16.5339 2.59074 15.438C2.6043 14.6161 2.29238 14.164 1.53292 13.849C0.556479 13.438 0.502232 13.3558 0.909084 12.4106C1.27525 11.5339 1.12607 10.8901 0.434423 10.3284C-0.108046 9.86268 -0.162293 9.41062 0.4073 8.94487C1.18032 8.31473 1.34306 7.575 0.841275 6.68459C0.529355 6.12295 0.637849 5.68459 1.30237 5.49281C2.30594 5.20514 2.69923 4.53391 2.59074 3.50651C2.53649 2.91747 2.76704 2.6024 3.40444 2.6572C4.4487 2.73939 5.15391 2.32843 5.45227 1.25994C5.60144 0.71199 5.95405 0.547607 6.48296 0.821579C6.52364 0.848976 6.56433 0.848976 6.60501 0.876374C7.48653 1.35583 8.23242 1.20514 8.8427 0.41062C9.24955 -0.123626 9.68353 -0.151024 10.0904 0.396922C10.7549 1.25994 11.555 1.32843 12.4637 0.848976C13.0062 0.561305 13.3859 0.71199 13.5351 1.28733C13.8334 2.42432 14.6336 2.71199 15.6643 2.6572C16.2338 2.6161 16.4508 2.89007 16.4101 3.43802C16.4101 3.50651 16.4237 3.575 16.4237 3.6435C16.3152 4.56131 16.6949 5.10925 17.5765 5.45172C18.4715 5.80788 18.5122 5.90377 18.1325 6.75309C17.7121 7.6572 17.8613 8.34213 18.6071 8.95857C19.1632 9.42432 19.1632 9.89007 18.58 10.3421C18.5665 10.3558 18.5529 10.3832 18.5393 10.3969C17.8613 10.9586 17.685 11.6161 18.1189 12.4243C18.2139 12.6161 18.2545 12.8764 18.363 13.1777ZM9.52079 16.1229C13.0604 16.1093 15.9355 13.2051 15.949 9.6298C15.9626 6.04076 13.0333 3.09555 9.4801 3.10925C5.92693 3.12295 2.99759 6.10925 3.05184 9.67089C3.09252 13.2599 5.98117 16.1366 9.52079 16.1229Z" fill="white"/>
<path d="M8.80157 20.0686C7.96074 21.8905 7.11992 23.7261 6.2384 25.548C5.95361 26.1371 5.45182 26.1508 5.09922 25.5891C4.80086 25.1097 4.54319 24.6028 4.27195 24.096C4.06852 23.7261 3.79729 23.5891 3.37688 23.6987C2.84797 23.822 2.31906 23.9316 1.79015 24.0138C1.207 24.096 0.854393 23.685 1.0985 23.1371C1.89865 21.3562 2.72591 19.5754 3.55318 17.822C3.77017 17.3699 4.09565 17.4795 4.3262 17.8083C4.51606 18.0686 4.61099 18.3699 4.76017 18.6576C5.16703 19.4384 5.64169 19.6439 6.48251 19.3973C7.78444 19.0275 7.78444 19.0275 8.80157 20.0686Z" fill="white"/>
<path d="M17.0878 23.9453C16.7216 23.8768 16.2063 23.7809 15.7045 23.6713C15.2298 23.5754 14.8772 23.6987 14.6602 24.1781C14.4433 24.6576 14.1856 25.1097 13.9279 25.5617C13.5889 26.1371 13.0871 26.1234 12.8023 25.5206C11.975 23.7946 11.1749 22.0686 10.3883 20.3288C10.3205 20.1918 10.4019 19.9042 10.5103 19.7672C10.9986 19.1645 11.541 18.9864 12.3276 19.3288C13.3719 19.7809 13.7787 19.5206 14.3483 18.5069C14.5382 18.1645 14.8501 17.8905 15.1213 17.5891C15.3383 17.9042 15.6096 18.1919 15.7723 18.5343C16.4911 20.0275 17.2098 21.5343 17.9015 23.0412C18.1592 23.6302 17.9015 23.9864 17.0878 23.9453Z" fill="white"/>
<path d="M9.50678 15.1918C6.42827 15.1918 3.96003 12.7124 3.96003 9.60278C3.96003 6.54799 6.44183 4.05484 9.47966 4.04114C12.5175 4.04114 15.0264 6.53429 15.04 9.57538C15.0535 12.6713 12.5717 15.1918 9.50678 15.1918ZM12.9108 8.58908C12.4904 8.13703 12.1784 7.84936 11.9072 7.52059C11.5953 7.13703 11.3376 7.19182 11.0257 7.53429C10.3747 8.24662 9.69665 8.94525 9.01856 9.65758C8.78801 9.4521 8.67952 9.34251 8.55746 9.23292C7.35047 8.06853 7.81156 8.01374 6.49608 9.28771C6.21128 9.56169 6.25196 9.76716 6.5232 10.0274C6.99786 10.4795 7.4454 10.9589 7.92006 11.4247C9.12705 12.6302 8.78801 12.5891 9.94076 11.4521C10.1713 11.2329 10.3883 11 10.6188 10.7809C11.3647 10.0548 12.1106 9.34251 12.9108 8.58908Z" fill="white"/>
</g>
<defs>
<clipPath id="clip0_52_128">
<rect width="19" height="26" fill="white"/>
</clipPath>
</defs>
</svg>
