<svg width="60" height="60" viewBox="0 0 60 60" fill="none" xmlns="http://www.w3.org/2000/svg">
<circle cx="30" cy="30" r="30" fill="#C61010"/>
<path d="M24.705 50.017C24.4241 49.749 24.2017 49.4079 24.4475 49.0669C24.5997 48.8598 24.986 48.7258 25.2435 48.7502C28.7669 49.1765 31.588 46.2166 31.0963 42.5503C31.0261 42.0509 30.909 41.5515 30.8037 41.0521C30.7218 41.0399 30.6515 41.0399 30.5696 41.0277C30.4408 41.3201 30.2886 41.6124 30.1716 41.9047C29.5863 43.3664 28.6147 44.3408 27.0462 44.4505C25.9224 44.5235 24.904 44.0729 23.9793 43.4516C22.7736 42.6477 21.7435 41.6246 20.8538 40.4552C20.7134 40.2725 20.4793 40.0776 20.2685 40.0411C17.2719 39.5904 15.8789 37.4345 16.6281 34.3893C16.9441 33.0738 17.5762 32.0263 18.8873 31.6121C19.215 31.5147 19.6481 31.5147 19.9525 31.6487C23.2535 33.1469 26.3906 34.9374 29.1766 37.3126C29.7268 37.7877 30.2418 38.3236 30.7569 38.8474C33.8472 42.0022 32.6415 48.2752 27.9592 49.7977C27.7719 49.8586 27.5963 49.9439 27.4207 50.0048C26.5077 50.017 25.6064 50.017 24.705 50.017ZM29.8204 39.7609C29.5044 39.4564 29.1649 39.1032 28.802 38.7743C26.0512 36.3626 22.9492 34.5477 19.7184 32.9642C19.3087 32.7571 19.0043 32.9276 18.7117 33.1713C18.0679 33.695 17.8689 34.4502 17.7284 35.242C17.3772 37.1787 18.7351 38.823 20.6314 38.7012C21.1231 38.6647 21.3923 38.823 21.6732 39.2494C22.7736 40.9181 24.0963 42.331 25.9926 42.9888C27.3154 43.4516 28.3806 42.8913 28.9425 41.5758C29.1883 40.979 29.4927 40.4187 29.8204 39.7609Z" fill="white"/>
<path d="M30.909 50.017C31.5411 49.2252 32.1147 48.3848 32.8053 47.6539C35.4742 44.8524 37.0778 41.5515 37.2183 37.5685C37.2417 36.996 37.0427 36.6062 36.5277 36.3017C32.5946 33.9508 28.6732 31.5634 24.7401 29.2004C24.5645 29.0908 24.2134 28.969 24.1314 29.0421C23.9675 29.2126 23.8622 29.5171 23.8505 29.7729C23.8154 30.5525 23.8388 31.3442 23.8388 32.3065C23.3003 32.0141 22.9492 31.8436 22.598 31.6365C22.516 31.5878 22.4575 31.4416 22.4575 31.3442C22.4575 30.6986 22.4692 30.0531 22.4926 29.3953C22.5395 28.1163 23.8856 26.9714 25.2786 27.824C29.3521 30.3332 33.4608 32.7815 37.5578 35.2541C38.1431 35.6074 38.4591 36.0824 38.5411 36.8011C38.74 38.5185 38.4357 40.1507 37.9207 41.7586C37.0661 44.4626 35.7083 46.85 33.6598 48.7746C33.1682 49.2374 32.6063 49.6028 32.0795 50.017C31.6933 50.017 31.307 50.017 30.909 50.017Z" fill="white"/>
<path d="M36.2937 13.597C37.3589 14.2183 38.4241 14.8395 39.4894 15.4485C40.1332 15.8139 40.7887 16.1915 41.4442 16.5326C41.8891 16.764 42.0529 17.1782 41.8657 17.5923C41.2101 19.0662 40.3907 20.4304 38.7051 20.8323C38.6114 20.8567 38.5061 20.8933 38.4241 20.8811C37.5579 20.7105 37.277 21.2465 37.0077 21.9773C35.9659 24.8154 34.8656 27.617 33.7886 30.4429C33.7184 30.6256 33.6365 30.8083 33.5194 31.0641C33.0395 30.7718 32.5712 30.5403 32.1615 30.2114C32.0445 30.1262 32.0562 29.7364 32.1381 29.5415C33.2736 26.5451 34.409 23.5608 35.5679 20.5766C35.7201 20.1868 35.7201 19.9066 35.486 19.529C34.491 17.909 34.4676 16.155 35.088 14.401C35.205 14.0843 35.5796 13.865 35.8372 13.597C35.9893 13.597 36.1415 13.597 36.2937 13.597ZM40.1566 18.0186C38.7168 17.2269 37.3589 16.4717 35.9425 15.6921C35.7201 16.5326 35.8489 17.2391 36.1064 17.9212C36.4342 18.7738 36.9843 19.4194 37.9442 19.4681C38.9392 19.5168 39.5947 18.9322 40.1566 18.0186Z" fill="white"/>
<path d="M33.6598 44.4749C33.5662 43.1715 33.6949 42.0875 34.1749 40.979C34.6899 39.8097 34.9007 38.4942 35.2518 37.2396C36.2234 37.605 36.2586 37.6416 36.0478 38.7865C35.685 40.8451 34.8772 42.6843 33.6598 44.4749Z" fill="white"/>
<path d="M20.1515 41.7829C18.7351 42.5015 17.3421 43.0375 15.8204 43.074C15.399 43.0862 15.0127 43.0131 15.001 42.4528C14.9776 41.8925 15.3756 41.8438 15.7736 41.7586C16.6866 41.5637 17.6114 41.4297 18.4776 41.0887C19.0512 40.8694 19.414 40.8938 19.7886 41.3688C19.8706 41.5028 19.9876 41.6124 20.1515 41.7829Z" fill="white"/>
<path d="M24.623 45.1569C23.4876 45.8756 22.3404 46.2776 21.1231 46.4846C20.7134 46.5577 20.3037 46.5333 20.2334 45.9852C20.1632 45.4614 20.5027 45.3031 20.9241 45.1935C21.6381 45.0108 22.3404 44.7671 23.0428 44.5723C23.2067 44.5235 23.4174 44.5235 23.5695 44.5844C23.909 44.7306 24.2133 44.9255 24.623 45.1569Z" fill="white"/>
<path d="M32.3137 38.7865C31.7402 38.2993 31.2602 37.8851 31.6114 37.0203C31.8221 36.4965 31.8221 35.8752 31.9157 35.3027C32.7937 35.4733 33.0044 35.7534 32.8639 36.6548C32.782 37.1542 32.6415 37.6293 32.5244 38.1165C32.4776 38.3358 32.3957 38.5429 32.3137 38.7865Z" fill="white"/>
<path d="M28.6849 33.2809C29.8673 33.8412 30.0077 34.5111 29.3288 35.9363C28.4039 35.4125 28.4039 35.4125 28.5678 34.4015C28.6147 34.0483 28.6381 33.695 28.6849 33.2809Z" fill="white"/>
<path d="M26.1916 33.7438C25.8522 33.5367 25.5595 33.3418 25.2552 33.1469C25.3371 32.5501 25.4074 31.9654 25.4776 31.3685C26.6365 31.7827 26.7535 32.1603 26.1916 33.7438Z" fill="white"/>
</svg>
